HIERARCHY
ROOT hip
{
	OFFSET 0.000000 0.000000 0.000000 
	CHANNELS 6 Xposition Yposition Zposition Xrotation Zrotation Yrotation
	JOINT abdomen
	{
		OFFSET 0.000000 3.402643 0.000000 
		CHANNELS 3 Xrotation Zrotation Yrotation
		JOINT chest
		{
			OFFSET 0.000000 8.438565 -0.680529 
			CHANNELS 3 Xrotation Zrotation Yrotation
			JOINT neck
			{
				OFFSET 0.000000 10.207942 -0.272212 
				CHANNELS 3 Xrotation Zrotation Yrotation
				JOINT head
				{
					OFFSET 0.000000 3.130431 0.000000 
					CHANNELS 3 Xrotation Zrotation Yrotation
					End Site
					{
						OFFSET 0.000000 3.130435 0.000000 
					}
				}
			}
			JOINT lCollar
			{
				OFFSET 3.470700 6.669187 -0.816635 
				CHANNELS 3 Yrotation Zrotation Xrotation
				JOINT lShldr
				{
					OFFSET 3.198488 0.000000 0.000000 
					CHANNELS 3 Zrotation Yrotation Xrotation
					JOINT lForeArm
					{
						OFFSET 10.139888 0.000000 0.000000 
						CHANNELS 3 Yrotation Zrotation Xrotation
						JOINT lHand
						{
							OFFSET 8.370511 0.000000 0.000000 
							CHANNELS 3 Zrotation Yrotation Xrotation
							End Site
							{
								OFFSET 4.083176 0.000000 0.000000 
							}
						}
					}
				}
			}
			JOINT rCollar
			{
				OFFSET -3.470700 6.669187 -0.816635 
				CHANNELS 3 Yrotation Zrotation Xrotation
				JOINT rShldr
				{
					OFFSET -3.198488 0.000000 0.000000 
					CHANNELS 3 Zrotation Yrotation Xrotation
					JOINT rForeArm
					{
						OFFSET -10.139888 0.000000 0.000000 
						CHANNELS 3 Yrotation Zrotation Xrotation
						JOINT rHand
						{
							OFFSET -8.370511 0.000000 0.000000 
							CHANNELS 3 Zrotation Yrotation Xrotation
							End Site
							{
								OFFSET -4.083176 0.000000 0.000000 
							}
						}
					}
				}
			}
		}
	}
	JOINT lThigh
	{
		OFFSET 5.308129 -1.633274 1.361059 
		CHANNELS 3 Xrotation Zrotation Yrotation
		JOINT lShin
		{
			OFFSET -2.041588 -20.007561 0.000000 
			CHANNELS 3 Xrotation Zrotation Yrotation
			JOINT lFoot
			{
				OFFSET 0.000000 -19.190928 -1.224953 
				CHANNELS 3 Xrotation Yrotation Zrotation
				End Site
				{
					OFFSET 0.000000 -2.449906 4.627600 
				}
			}
		}
	}
	JOINT rThigh
	{
		OFFSET -5.308129 -1.633274 1.361059 
		CHANNELS 3 Xrotation Zrotation Yrotation
		JOINT rShin
		{
			OFFSET 2.041588 -20.007561 0.000000 
			CHANNELS 3 Xrotation Zrotation Yrotation
			JOINT rFoot
			{
				OFFSET 0.000000 -19.190928 -1.224953 
				CHANNELS 3 Xrotation Yrotation Zrotation
				End Site
				{
					OFFSET 0.000000 -2.449906 4.627600 
				}
			}
		}
	}
}
MOTION
Frames: 15
Frame Time: 0.028571
-1.595667 49.669910 2.625574 30.095240 1.274995 -0.326281 50.822182 0.984669 -5.413640 7.902413 5.822967 -0.046305 -41.031551 -1.317715 -3.414626 -16.018019 -0.330335 0.535476 2.021920 -5.690310 -0.063351 -3.317924 -76.839325 -11.605941 -90.193977 22.415531 73.149635 28.507381 -20.572376 26.389500 -2.021920 5.690310 -0.063351 -7.053221 44.090324 19.877180 25.459625 -24.348810 -8.059387 -10.566273 -18.149273 -46.486172 -43.742050 21.559885 0.290048 25.245808 -22.110693 -1.892528 -12.293490 12.570313 11.247787 -62.875973 4.653874 6.702719 29.421898 -8.699265 -5.324341 11.920649 19.611458 -10.067569 
-1.476440 49.783100 2.977057 28.208500 2.320880 -0.469079 48.621498 1.454290 -5.248850 7.866250 5.640610 -0.046305 -35.503300 0.205621 -3.186990 -15.678800 -0.335103 0.523246 2.021920 -5.690310 -0.063351 -6.805240 -71.894402 -8.808410 -90.569397 22.923700 74.587799 35.536499 -20.612301 26.834400 -2.021920 5.690310 -0.063351 -3.819170 36.889099 17.719101 26.909100 -21.918501 -7.179370 -7.816950 -16.732100 -45.363701 -41.336399 21.006599 0.582357 25.710899 -21.612499 -2.028420 -13.019200 11.005300 10.936500 -61.380199 3.217080 6.316560 31.102400 -7.166510 -4.813480 10.008100 20.366699 -9.938320 
-1.313695 49.899452 3.640452 26.151915 3.146928 -0.632404 45.114979 1.880174 -4.879367 7.826039 5.438857 -0.046305 -29.642679 1.755193 -2.952488 -15.251945 -0.335873 0.508312 2.021920 -5.690310 -0.063351 -10.734907 -63.633625 -5.743290 -90.158394 23.185175 73.979996 43.566978 -20.570663 26.276804 -2.021920 5.690310 -0.063351 1.341022 28.436275 16.281887 28.545366 -19.547216 -5.934557 -5.752817 -15.129581 -43.049164 -38.682251 20.324509 0.919223 26.261703 -21.022980 -2.191366 -13.780313 9.269095 10.511868 -59.504837 1.614518 5.889853 32.674839 -5.331644 -4.340438 7.864583 20.874249 -9.806379 
-1.107716 50.022530 4.510665 24.043995 3.691315 -0.806777 40.889557 2.233629 -4.324020 7.782209 5.219712 -0.046305 -23.638134 3.237905 -2.713456 -14.745962 -0.333015 0.490904 2.021920 -5.690309 -0.063351 -15.019979 -54.454987 -2.488392 -88.753319 23.123009 72.100334 51.163372 -20.364859 24.852247 -2.021920 5.690309 -0.063351 7.937388 18.120865 15.433517 30.187067 -17.372446 -4.474235 -4.312913 -13.386940 -39.725643 -35.938515 19.596418 1.290026 26.882500 -20.354773 -2.377144 -14.556710 7.405920 9.987607 -57.238262 0.010110 5.450161 33.910572 -3.343763 -3.952273 5.627147 21.069305 -9.683805 
-0.860069 50.159279 5.439675 22.012602 3.911249 -0.980848 36.624893 2.485022 -3.619473 7.735187 4.985154 -0.046305 -17.694147 4.552367 -2.471348 -14.169374 -0.326889 0.471256 2.021920 -5.690310 -0.063351 -19.574320 -45.863052 0.877582 -86.118713 22.651239 69.802673 56.618530 -19.900600 22.734039 -2.021920 5.690310 -0.063351 15.374768 7.910960 14.995263 31.632034 -15.537154 -2.974330 -3.393945 -11.548218 -35.617325 -33.287041 18.923994 1.683413 27.557220 -19.621353 -2.581370 -15.328251 5.458899 9.380854 -54.568359 -1.414719 5.028225 34.558342 -1.367614 -3.696378 3.440788 20.884361 -9.579182 
-0.572317 50.316643 6.279460 20.185600 3.763940 -1.143270 33.076199 2.604720 -2.802390 7.685400 4.737160 -0.046305 -12.015200 5.597190 -2.227620 -13.530700 -0.317856 0.449598 2.021920 -5.690310 -0.063351 -24.311800 -38.851299 4.275930 -82.019096 21.683901 67.808502 58.225300 -19.083599 20.095501 -2.021920 5.690310 -0.063351 23.058001 -0.676109 14.788400 32.678101 -14.184300 -1.610770 -2.892620 -9.657460 -30.948400 -30.909700 18.408899 2.088030 28.269800 -18.836201 -2.799660 -16.074800 3.471160 8.708750 -51.483002 -2.478540 4.654790 34.366901 0.432058 -3.620150 1.450500 20.251900 -9.501090 
-0.246170 50.499996 6.918794 18.668619 3.217423 -1.284107 26.034863 2.570155 -1.929043 7.633275 4.477661 -0.046305 -6.768632 6.290211 -1.985599 -12.838205 -0.306266 0.426162 2.021920 -5.690310 -0.063351 -29.142439 -31.880775 7.624226 -76.328499 20.166248 58.362026 54.953014 -17.850086 17.108078 -2.021920 5.690310 -0.063351 30.463257 -6.487680 14.652784 33.158428 -13.424053 -0.532711 -2.712356 -7.761037 -25.941816 -28.956459 18.131756 2.492448 29.000956 -18.011608 -3.026967 -16.776278 1.486029 7.987502 -48.034760 -3.053351 4.356220 33.195286 1.937356 -3.751413 -0.225421 19.131416 -9.451958 
0.116077 50.708462 7.393625 17.478352 2.283031 -1.399075 17.556004 2.387017 -1.134131 7.579237 4.208401 -0.046305 -1.973223 6.626173 -1.756110 -12.099139 -0.292435 0.401179 2.021920 -5.690310 -0.063351 -33.960876 -23.438354 10.825158 -69.358948 18.168457 47.865940 48.651165 -16.258385 13.935790 -2.021920 5.690310 -0.063351 37.352055 -9.829764 14.502628 33.047543 -13.235413 0.217770 -2.783424 -5.914635 -20.815649 -27.449800 18.089025 2.884929 29.718550 -17.155155 -3.255591 -17.412840 -0.452354 7.229612 -44.534985 -3.224851 4.141369 31.343702 3.217779 -4.039718 -1.575469 17.590424 -9.409595 
0.511989 50.939575 7.776693 16.609257 0.982926 -1.485306 8.732280 2.068060 -0.571962 7.523713 3.931083 -0.046305 2.389385 6.619046 -1.551851 -11.320503 -0.276667 0.374882 2.021920 -5.690310 -0.063351 -38.657928 -14.839845 13.777693 -61.531994 15.791937 38.040775 41.467316 -14.397340 10.740799 -2.021920 5.690310 -0.063351 43.557251 -11.373043 14.270733 32.355312 -13.564589 0.625364 -3.042810 -4.176272 -15.786755 -26.380341 18.256130 3.253664 30.387245 -16.273251 -3.477169 -17.964708 -2.299648 6.446657 -41.359737 -3.132163 4.014713 29.222668 4.389671 -4.415046 -2.614832 15.723444 -9.345659 
0.939128 51.190868 8.140744 16.055799 -0.660734 -1.539930 0.075752 1.626040 -0.396845 7.467130 3.647410 -0.046305 6.337550 6.282800 -1.385520 -10.509300 -0.259269 0.347500 2.021920 -5.690310 -0.063351 -43.124401 -6.914120 16.380800 -53.269199 13.138100 30.022600 35.320400 -12.355800 7.685270 -2.021920 5.690310 -0.063351 48.911701 -11.788200 13.889900 31.091600 -14.357800 0.674763 -3.427500 -2.603970 -11.072000 -25.738701 18.608500 3.586840 30.971701 -15.372300 -3.683340 -18.412100 -4.011510 5.650220 -38.885101 -2.914410 3.980730 27.242701 5.569380 -4.807380 -3.358700 13.625000 -9.231810 
1.390078 51.454674 8.528980 15.791307 -2.599110 -1.560899 -7.893365 1.080160 -0.735916 7.409880 3.359050 -0.046305 9.885034 5.645201 -1.265441 -9.672374 -0.240534 0.319266 2.021920 -5.690310 -0.063351 -47.262615 -0.334055 18.545948 -45.007355 10.316604 21.546890 26.328892 -10.230040 4.917180 -2.021920 5.690310 -0.063351 53.298595 -11.719804 13.314438 29.298285 -15.527340 0.371889 -3.877543 -1.248400 -6.867233 -25.488754 19.105049 3.872154 31.434669 -14.457677 -3.864853 -18.735008 -5.543317 4.852159 -37.422295 -2.710458 4.037109 25.783241 6.859992 -5.146094 -3.836825 11.396745 -9.039593 
1.837500 51.702408 8.866457 15.704580 -4.676642 -1.549452 -14.622246 0.475424 -1.607620 7.352204 3.067545 -0.046305 13.027205 4.789195 -1.182437 -8.815947 -0.220711 0.290411 2.021920 -5.690310 -0.063351 -51.021000 4.851488 20.234629 -37.244251 7.470097 11.150898 15.296024 -8.146063 2.527761 -2.021920 5.690310 -0.063351 56.802448 -11.707972 12.584676 27.145250 -16.849840 -0.192411 -4.345240 -0.130853 -3.284257 -25.487415 19.638672 4.095338 31.731277 -13.530626 -4.008911 -18.912546 -6.849331 4.065458 -37.023182 -2.658130 4.154391 25.099434 8.311564 -5.358121 -4.137201 9.168856 -8.740118 
2.249080 51.900261 9.048695 15.663287 -6.711095 -1.507652 -19.549915 -0.136718 -3.003233 7.294312 2.774408 -0.046305 15.754836 3.811529 -1.122957 -7.946088 -0.200037 0.261166 2.021920 -5.690310 -0.063351 -54.359512 8.749657 21.420845 -30.492947 4.749481 1.060706 4.603564 -6.237307 0.594060 -2.021920 5.690310 -0.063351 59.558125 -12.266704 11.762451 24.834389 -18.068020 -0.906060 -4.785957 0.734725 -0.413865 -25.564869 20.085758 4.241636 31.814745 -12.591362 -4.101828 -18.923611 -7.883534 3.303389 -37.674805 -2.894995 4.296329 25.415359 9.960899 -5.369788 -4.362387 7.078643 -8.304390 
2.592503 52.014442 8.971210 15.535100 -8.520230 -1.437560 -22.115400 -0.704812 -4.914030 7.236410 2.481150 -0.046305 18.058701 2.808950 -1.073450 -7.068870 -0.178748 0.231763 2.021920 -5.690310 -0.063351 -57.238098 11.467600 22.078600 -25.266500 2.305660 -6.854830 -3.738110 -4.637210 -0.806876 -2.021920 5.690310 -0.063351 61.700500 -13.910000 10.909600 22.567600 -18.924601 -1.656980 -5.155060 1.334390 1.653150 -25.551300 20.322701 4.296290 31.638300 -11.640100 -4.129920 -18.747101 -8.599910 2.579220 -39.364201 -3.558620 4.426680 26.955099 11.844800 -5.107420 -4.614940 5.263420 -7.703410 
2.836252 52.030758 8.573908 15.193733 -9.929781 -1.341144 -21.996208 -1.180874 -7.238831 7.178731 2.189306 -0.046305 19.872829 1.868191 -1.022815 -6.190354 -0.157084 0.202433 2.021920 -5.690310 -0.063351 -59.638752 13.128696 22.206022 -21.917807 0.249764 -11.203946 -8.231098 -3.441043 -1.632391 -2.021920 5.690310 -0.063351 63.360188 -16.887707 10.104515 20.538275 -19.172970 -2.338389 -5.419698 1.665610 2.872448 -25.284447 20.231129 4.245054 31.155163 -10.677454 -4.080012 -18.362736 -8.953758 1.906019 -41.882355 -4.703975 4.506288 29.723923 13.912292 -4.530930 -4.973998 3.822984 -6.921177 
